<?xml version="1.0" encoding="UTF-8" standalone="no"?>
<svg
   xmlns:dc="http://purl.org/dc/elements/1.1/"
   xmlns:cc="http://creativecommons.org/ns#"
   xmlns:rdf="http://www.w3.org/1999/02/22-rdf-syntax-ns#"
   xmlns:svg="http://www.w3.org/2000/svg"
   xmlns="http://www.w3.org/2000/svg"
   xmlns:sodipodi="http://sodipodi.sourceforge.net/DTD/sodipodi-0.dtd"
   xmlns:inkscape="http://www.inkscape.org/namespaces/inkscape"
   version="1.1"
   width="24.0px"
   height="42.0px"
   overflow="visible"
   viewBox="0.0 0.0 24.0 42.0"
   enable-background="new 0.0 0.0 24.0 42.0"
   id="svg2"
   sodipodi:version="0.32"
   inkscape:version="0.46"
   sodipodi:docname="06russisch-Jeje.svg"
   inkscape:output_extension="org.inkscape.output.svg.inkscape">
  <metadata
     id="metadata15">
    <rdf:RDF>
      <cc:Work
         rdf:about="">
        <dc:format>image/svg+xml</dc:format>
        <dc:type
           rdf:resource="http://purl.org/dc/dcmitype/StillImage" />
      </cc:Work>
    </rdf:RDF>
  </metadata>
  <sodipodi:namedview
     inkscape:window-height="668"
     inkscape:window-width="640"
     inkscape:pageshadow="2"
     inkscape:pageopacity="0.0"
     guidetolerance="10.0"
     gridtolerance="10.0"
     objecttolerance="10.0"
     borderopacity="1.0"
     bordercolor="#666666"
     pagecolor="#ffffff"
     id="base"
     showgrid="false"
     inkscape:zoom="11"
     inkscape:cx="12"
     inkscape:cy="21"
     inkscape:window-x="176"
     inkscape:window-y="208"
     inkscape:current-layer="svg2" />
  <defs
     id="defs4">
    <inkscape:perspective
       sodipodi:type="inkscape:persp3d"
       inkscape:vp_x="0 : 21 : 1"
       inkscape:vp_y="0 : 1000 : 0"
       inkscape:vp_z="24 : 21 : 1"
       inkscape:persp3d-origin="12 : 14 : 1"
       id="perspective17" />
  </defs>
  <g
     id="g8">
    <g
       transform="matrix(1.0 0.0 0.0 1.0 0.0 0.0)"
       id="g10">
      <path
         fill="none"
         stroke="#000000"
         stroke-width="1.0"
         stroke-linecap="round"
         stroke-linejoin="round"
         d="M 21.4 21.35 C 22.333332 19.383333 21.683332 18.6 19.45 19.0 C 17.216667 19.433332 15.733334 20.516666 15.0 22.25 C 14.266666 23.983334 14.066667 25.266666 14.4 26.1 C 17.4 25.266666 19.733334 23.683332 21.4 21.35 Z M 14.4 26.1 C 14.5 29.666668 15.833333 31.083334 18.4 30.35 C 19.8 29.716667 21.133333 28.383333 22.4 26.35 M 13.4 26.35 L 14.4 26.1 M 13.0 4.95 C 11.333333 4.85 9.966666 5.616667 8.9 7.25 C 7.833333 8.849999 7.483333 10.416666 7.85 11.95 C 8.25 13.716667 9.683333 15.05 12.15 15.95 C 7.683333 16.65 4.7 18.066666 3.2 20.2 C 1.6666665 22.333334 1.2833331 24.616667 2.05 27.05 C 2.7833333 29.449999 4.133333 30.716665 6.1 30.85 C 8.333333 30.983334 10.349999 29.516666 12.15 26.45 M 17.15 8.35 C 16.05 6.15 14.666666 5.0166664 13.0 4.95"
         id="path12" />
    </g>
  </g>
</svg>
