<?xml version="1.0" encoding="UTF-8" standalone="no"?>
<svg
   xmlns:dc="http://purl.org/dc/elements/1.1/"
   xmlns:cc="http://creativecommons.org/ns#"
   xmlns:rdf="http://www.w3.org/1999/02/22-rdf-syntax-ns#"
   xmlns:svg="http://www.w3.org/2000/svg"
   xmlns="http://www.w3.org/2000/svg"
   xmlns:sodipodi="http://sodipodi.sourceforge.net/DTD/sodipodi-0.dtd"
   xmlns:inkscape="http://www.inkscape.org/namespaces/inkscape"
   version="1.1"
   width="24.0px"
   height="42.0px"
   overflow="visible"
   viewBox="0.0 0.0 24.0 42.0"
   enable-background="new 0.0 0.0 24.0 42.0"
   id="svg2"
   sodipodi:version="0.32"
   inkscape:version="0.46"
   sodipodi:docname="07russisch-Jojo.svg"
   inkscape:output_extension="org.inkscape.output.svg.inkscape">
  <metadata
     id="metadata15">
    <rdf:RDF>
      <cc:Work
         rdf:about="">
        <dc:format>image/svg+xml</dc:format>
        <dc:type
           rdf:resource="http://purl.org/dc/dcmitype/StillImage" />
      </cc:Work>
    </rdf:RDF>
  </metadata>
  <sodipodi:namedview
     inkscape:window-height="668"
     inkscape:window-width="640"
     inkscape:pageshadow="2"
     inkscape:pageopacity="0.0"
     guidetolerance="10.0"
     gridtolerance="10.0"
     objecttolerance="10.0"
     borderopacity="1.0"
     bordercolor="#666666"
     pagecolor="#ffffff"
     id="base"
     showgrid="false"
     inkscape:zoom="11"
     inkscape:cx="12"
     inkscape:cy="21"
     inkscape:window-x="22"
     inkscape:window-y="47"
     inkscape:current-layer="svg2" />
  <defs
     id="defs4">
    <inkscape:perspective
       sodipodi:type="inkscape:persp3d"
       inkscape:vp_x="0 : 21 : 1"
       inkscape:vp_y="0 : 1000 : 0"
       inkscape:vp_z="24 : 21 : 1"
       inkscape:persp3d-origin="12 : 14 : 1"
       id="perspective17" />
  </defs>
  <g
     id="g8">
    <g
       transform="matrix(1.0 0.0 0.0 1.0 0.0 0.0)"
       id="g10">
      <path
         fill="none"
         stroke="#000000"
         stroke-width="1.0"
         stroke-linecap="round"
         stroke-linejoin="round"
         d="M 22.25 15.95 L 21.9 16.1 L 21.55 15.95 L 21.4 15.6 L 21.55 15.25 C 21.65 15.150001 21.766666 15.1 21.9 15.1 L 22.25 15.25 L 22.4 15.6 L 22.25 15.95 Z M 14.55 2.2 L 14.2 2.05 L 14.05 1.7 L 14.2 1.35 C 14.3 1.25 14.416667 1.2 14.55 1.2 L 14.9 1.35 L 15.05 1.7 L 14.9 2.05 L 14.55 2.2 Z M 11.15 2.2 L 10.8 2.05 L 10.65 1.7 L 10.8 1.35 C 10.9 1.25 11.016666 1.2 11.15 1.2 L 11.5 1.35 L 11.65 1.7 L 11.5 2.05 L 11.15 2.2 Z M 12.65 4.95 C 10.983333 4.85 9.616666 5.616667 8.55 7.25 C 7.483333 8.849999 7.133333 10.416666 7.5 11.95 C 7.9 13.716667 9.333334 15.05 11.8 15.95 C 7.333333 16.65 4.3499994 18.066666 2.85 20.2 C 1.3166666 22.333334 0.9333333 24.616667 1.7 27.05 C 2.4333334 29.449999 3.7833335 30.716665 5.75 30.85 C 7.9833336 30.983334 10.0 29.516666 11.8 26.45 M 16.8 8.35 C 15.7 6.15 14.316667 5.0166664 12.65 4.95 M 17.95 15.95 L 17.8 15.6 C 17.8 15.466666 17.85 15.349999 17.95 15.25 C 18.050001 15.150001 18.166668 15.1 18.3 15.1 L 18.65 15.25 L 18.8 15.6 L 18.65 15.95 L 18.3 16.1 L 17.95 15.95 Z M 14.85 22.25 C 15.583333 20.516666 17.066666 19.433332 19.3 19.0 C 21.533333 18.6 22.183332 19.383333 21.25 21.35 C 19.583334 23.683334 17.25 25.266668 14.25 26.1 C 13.916667 25.266666 14.116667 23.983334 14.85 22.25 Z M 14.25 26.1 C 14.349999 29.666668 15.683332 31.083334 18.25 30.35 C 19.65 29.716667 21.033333 28.633333 22.4 27.1 M 13.25 26.35 L 14.25 26.1"
         id="path12" />
    </g>
  </g>
</svg>
