<?xml version="1.0" encoding="UTF-8" standalone="no"?>
<svg
   xmlns:dc="http://purl.org/dc/elements/1.1/"
   xmlns:cc="http://creativecommons.org/ns#"
   xmlns:rdf="http://www.w3.org/1999/02/22-rdf-syntax-ns#"
   xmlns:svg="http://www.w3.org/2000/svg"
   xmlns="http://www.w3.org/2000/svg"
   xmlns:sodipodi="http://sodipodi.sourceforge.net/DTD/sodipodi-0.dtd"
   xmlns:inkscape="http://www.inkscape.org/namespaces/inkscape"
   version="1.1"
   width="28.0px"
   height="42.0px"
   overflow="visible"
   viewBox="0.0 0.0 28.0 42.0"
   enable-background="new 0.0 0.0 28.0 42.0"
   id="svg2"
   sodipodi:version="0.32"
   inkscape:version="0.46"
   sodipodi:docname="09russisch-Ss(stimmhaft).svg"
   inkscape:output_extension="org.inkscape.output.svg.inkscape">
  <metadata
     id="metadata15">
    <rdf:RDF>
      <cc:Work
         rdf:about="">
        <dc:format>image/svg+xml</dc:format>
        <dc:type
           rdf:resource="http://purl.org/dc/dcmitype/StillImage" />
      </cc:Work>
    </rdf:RDF>
  </metadata>
  <sodipodi:namedview
     inkscape:window-height="668"
     inkscape:window-width="640"
     inkscape:pageshadow="2"
     inkscape:pageopacity="0.0"
     guidetolerance="10.0"
     gridtolerance="10.0"
     objecttolerance="10.0"
     borderopacity="1.0"
     bordercolor="#666666"
     pagecolor="#ffffff"
     id="base"
     showgrid="false"
     inkscape:zoom="11"
     inkscape:cx="14"
     inkscape:cy="21"
     inkscape:window-x="264"
     inkscape:window-y="300"
     inkscape:current-layer="svg2" />
  <defs
     id="defs4">
    <inkscape:perspective
       sodipodi:type="inkscape:persp3d"
       inkscape:vp_x="0 : 21 : 1"
       inkscape:vp_y="0 : 1000 : 0"
       inkscape:vp_z="28 : 21 : 1"
       inkscape:persp3d-origin="14 : 14 : 1"
       id="perspective17" />
  </defs>
  <g
     id="g8">
    <g
       transform="matrix(1.0 0.0 0.0 1.0 0.0 0.0)"
       id="g10">
      <path
         fill="none"
         stroke="#000000"
         stroke-width="1.0"
         stroke-linecap="round"
         stroke-linejoin="round"
         d="M 25.35 19.55 C 25.816666 20.65 25.816666 21.65 25.35 22.55 C 23.883333 25.449999 21.766666 27.266666 19.0 28.0 C 20.5 27.666666 21.283333 28.183332 21.35 29.55 L 21.35 29.9 L 21.1 31.25 M 21.35 29.9 L 26.35 25.95 M 21.1 31.25 C 20.5 33.283333 18.916666 36.25 16.35 40.15 C 15.25 41.083332 14.333333 41.35 13.6 40.95 C 12.866667 40.55 12.583333 39.75 12.75 38.55 C 13.016666 36.283333 15.883333 33.4 21.35 29.9 L 21.1 31.25 Z M 16.35 24.55 C 20.716667 19.816666 23.716667 18.15 25.35 19.55 M 19.0 28.0 L 18.35 28.15 M 16.4 4.55 C 18.166666 5.2166667 18.833332 6.55 18.4 8.55 C 17.933334 10.55 16.95 12.183333 15.45 13.45 C 13.95 14.683333 11.983334 15.383333 9.55 15.55 C 13.85 16.016666 15.716667 17.933332 15.15 21.3 C 14.55 24.666666 13.066667 27.266666 10.7 29.1 C 8.299999 30.933334 6.266666 31.366667 4.6 30.4 C 2.8666666 29.433334 1.8833332 27.483334 1.65 24.55 M 10.05 7.55 C 12.516666 4.883333 14.633333 3.8833332 16.4 4.55"
         id="path12" />
    </g>
  </g>
</svg>
