<?xml version="1.0" encoding="UTF-8" standalone="no"?>
<svg
   xmlns:dc="http://purl.org/dc/elements/1.1/"
   xmlns:cc="http://creativecommons.org/ns#"
   xmlns:rdf="http://www.w3.org/1999/02/22-rdf-syntax-ns#"
   xmlns:svg="http://www.w3.org/2000/svg"
   xmlns="http://www.w3.org/2000/svg"
   xmlns:sodipodi="http://sodipodi.sourceforge.net/DTD/sodipodi-0.dtd"
   xmlns:inkscape="http://www.inkscape.org/namespaces/inkscape"
   version="1.1"
   width="40.0px"
   height="42.0px"
   overflow="visible"
   viewBox="0.0 0.0 40.0 42.0"
   enable-background="new 0.0 0.0 40.0 42.0"
   id="svg2"
   sodipodi:version="0.32"
   inkscape:version="0.46"
   sodipodi:docname="15russisch-Nn.svg"
   inkscape:output_extension="org.inkscape.output.svg.inkscape">
  <metadata
     id="metadata15">
    <rdf:RDF>
      <cc:Work
         rdf:about="">
        <dc:format>image/svg+xml</dc:format>
        <dc:type
           rdf:resource="http://purl.org/dc/dcmitype/StillImage" />
      </cc:Work>
    </rdf:RDF>
  </metadata>
  <sodipodi:namedview
     inkscape:window-height="668"
     inkscape:window-width="640"
     inkscape:pageshadow="2"
     inkscape:pageopacity="0.0"
     guidetolerance="10.0"
     gridtolerance="10.0"
     objecttolerance="10.0"
     borderopacity="1.0"
     bordercolor="#666666"
     pagecolor="#ffffff"
     id="base"
     showgrid="false"
     inkscape:zoom="11"
     inkscape:cx="20"
     inkscape:cy="21"
     inkscape:window-x="44"
     inkscape:window-y="70"
     inkscape:current-layer="svg2" />
  <defs
     id="defs4">
    <inkscape:perspective
       sodipodi:type="inkscape:persp3d"
       inkscape:vp_x="0 : 21 : 1"
       inkscape:vp_y="0 : 1000 : 0"
       inkscape:vp_z="40 : 21 : 1"
       inkscape:persp3d-origin="20 : 14 : 1"
       id="perspective17" />
  </defs>
  <g
     id="g8">
    <g
       transform="matrix(1.0 0.0 0.0 1.0 0.0 0.0)"
       id="g10">
      <path
         fill="none"
         stroke="#000000"
         stroke-width="1.0"
         stroke-linecap="round"
         stroke-linejoin="round"
         d="M 28.2 7.0 C 28.800001 5.1 28.216667 4.45 26.45 5.05 C 24.683332 5.65 23.066666 8.633333 21.6 14.0 L 24.45 11.95 C 26.316668 10.516666 27.566668 8.866667 28.2 7.0 Z M 21.6 14.0 L 21.55 14.1 L 21.3 14.25 L 21.55 14.1 Z M 21.3 14.25 C 18.566668 19.416668 16.483334 23.983335 15.05 27.95 C 14.616667 32.316666 16.883333 31.966665 21.85 26.9 M 5.85 28.95 C 2.7166667 31.750002 1.5833334 31.083336 2.45 26.95 C 3.9833333 23.050001 7.133333 20.183334 11.9 18.35 C 9.266666 24.216667 7.25 27.75 5.85 28.95 Z M 11.9 18.35 C 15.333333 17.45 18.466667 16.083334 21.3 14.25 M 17.45 4.95 C 15.383333 10.283333 13.533333 14.75 11.9 18.35 M 10.45 7.95 L 17.45 4.95 M 34.6 22.9 L 33.55 23.85 L 27.3 25.65 L 29.05 20.35 L 29.55 19.85 M 27.3 25.65 L 25.55 30.85 C 25.083334 30.983334 25.416668 29.65 26.55 26.85 L 27.3 25.65 Z M 29.05 20.35 L 25.55 23.85 M 29.55 18.85 L 29.05 20.35 L 29.55 19.85 C 30.083334 19.583334 30.083334 19.25 29.55 18.85 Z M 36.55 29.85 C 33.516666 31.883335 32.183334 31.883335 32.55 29.85 L 35.0 22.5 C 36.0 21.4 36.85 20.183332 37.55 18.85 M 35.0 22.5 L 34.6 22.9 M 37.55 18.85 C 36.35 19.583334 35.5 20.800001 35.0 22.5 C 36.0 21.4 36.85 20.183332 37.55 18.85 Z"
         id="path12" />
    </g>
  </g>
</svg>
