<?xml version="1.0" encoding="UTF-8" standalone="no"?>
<svg
   xmlns:dc="http://purl.org/dc/elements/1.1/"
   xmlns:cc="http://creativecommons.org/ns#"
   xmlns:rdf="http://www.w3.org/1999/02/22-rdf-syntax-ns#"
   xmlns:svg="http://www.w3.org/2000/svg"
   xmlns="http://www.w3.org/2000/svg"
   xmlns:sodipodi="http://sodipodi.sourceforge.net/DTD/sodipodi-0.dtd"
   xmlns:inkscape="http://www.inkscape.org/namespaces/inkscape"
   version="1.1"
   width="34.0px"
   height="42.0px"
   overflow="visible"
   viewBox="0.0 0.0 34.0 42.0"
   enable-background="new 0.0 0.0 34.0 42.0"
   id="svg2"
   sodipodi:version="0.32"
   inkscape:version="0.46"
   sodipodi:docname="18russisch-Rr.svg"
   inkscape:output_extension="org.inkscape.output.svg.inkscape">
  <metadata
     id="metadata17">
    <rdf:RDF>
      <cc:Work
         rdf:about="">
        <dc:format>image/svg+xml</dc:format>
        <dc:type
           rdf:resource="http://purl.org/dc/dcmitype/StillImage" />
      </cc:Work>
    </rdf:RDF>
  </metadata>
  <sodipodi:namedview
     inkscape:window-height="668"
     inkscape:window-width="640"
     inkscape:pageshadow="2"
     inkscape:pageopacity="0.0"
     guidetolerance="10.0"
     gridtolerance="10.0"
     objecttolerance="10.0"
     borderopacity="1.0"
     bordercolor="#666666"
     pagecolor="#ffffff"
     id="base"
     showgrid="false"
     inkscape:zoom="11"
     inkscape:cx="17"
     inkscape:cy="21"
     inkscape:window-x="176"
     inkscape:window-y="208"
     inkscape:current-layer="svg2" />
  <defs
     id="defs4">
    <inkscape:perspective
       sodipodi:type="inkscape:persp3d"
       inkscape:vp_x="0 : 21 : 1"
       inkscape:vp_y="0 : 1000 : 0"
       inkscape:vp_z="34 : 21 : 1"
       inkscape:persp3d-origin="17 : 14 : 1"
       id="perspective19" />
  </defs>
  <g
     id="g8">
    <g
       transform="matrix(1.0 0.0 0.0 1.0 0.0 0.0)"
       id="g10">
      <path
         fill="none"
         stroke="#000000"
         stroke-width="1.0"
         stroke-linecap="round"
         stroke-linejoin="round"
         d="M 22.2 24.0 C 26.033335 19.833332 28.533335 18.249998 29.7 19.25 C 30.800001 20.316668 30.133335 22.316668 27.7 25.25 C 25.6 28.65 26.266666 30.316666 29.7 30.25 C 30.666666 30.083334 31.666666 29.416668 32.7 28.25 M 24.7 18.65 L 22.2 24.0 L 13.7 41.25 M 17.7 26.25 L 24.7 18.65 M 11.0 5.85 C 13.266666 4.55 15.883333 4.4333334 18.85 5.5 C 21.783333 6.533334 23.416666 8.066668 23.75 10.1 C 24.116667 12.433334 22.333334 14.466668 18.4 16.2 M 7.4 14.5 C 7.133333 10.266666 8.333333 7.383333 11.0 5.85"
         id="path12" />
      <path
         fill="none"
         stroke="#000000"
         stroke-width="1.0"
         stroke-linecap="round"
         stroke-linejoin="round"
         d="M 7.4 29.0 C 3.9666667 31.766668 1.9666667 31.133335 1.4 27.1 M 17.4 6.9 C 14.233333 18.9 10.9 26.266666 7.4 29.0"
         id="path14" />
    </g>
  </g>
</svg>
