<?xml version="1.0" encoding="UTF-8" standalone="no"?>
<svg
   xmlns:dc="http://purl.org/dc/elements/1.1/"
   xmlns:cc="http://creativecommons.org/ns#"
   xmlns:rdf="http://www.w3.org/1999/02/22-rdf-syntax-ns#"
   xmlns:svg="http://www.w3.org/2000/svg"
   xmlns="http://www.w3.org/2000/svg"
   xmlns:sodipodi="http://sodipodi.sourceforge.net/DTD/sodipodi-0.dtd"
   xmlns:inkscape="http://www.inkscape.org/namespaces/inkscape"
   version="1.1"
   width="54.0px"
   height="42.0px"
   overflow="visible"
   viewBox="0.0 0.0 54.0 42.0"
   enable-background="new 0.0 0.0 54.0 42.0"
   id="svg2"
   sodipodi:version="0.32"
   inkscape:version="0.46"
   sodipodi:docname="20russisch-Tt.svg"
   inkscape:output_extension="org.inkscape.output.svg.inkscape">
  <metadata
     id="metadata17">
    <rdf:RDF>
      <cc:Work
         rdf:about="">
        <dc:format>image/svg+xml</dc:format>
        <dc:type
           rdf:resource="http://purl.org/dc/dcmitype/StillImage" />
      </cc:Work>
    </rdf:RDF>
  </metadata>
  <sodipodi:namedview
     inkscape:window-height="668"
     inkscape:window-width="640"
     inkscape:pageshadow="2"
     inkscape:pageopacity="0.0"
     guidetolerance="10.0"
     gridtolerance="10.0"
     objecttolerance="10.0"
     borderopacity="1.0"
     bordercolor="#666666"
     pagecolor="#ffffff"
     id="base"
     showgrid="false"
     inkscape:zoom="10.074074"
     inkscape:cx="27"
     inkscape:cy="21"
     inkscape:window-x="264"
     inkscape:window-y="300"
     inkscape:current-layer="svg2" />
  <defs
     id="defs4">
    <inkscape:perspective
       sodipodi:type="inkscape:persp3d"
       inkscape:vp_x="0 : 21 : 1"
       inkscape:vp_y="0 : 1000 : 0"
       inkscape:vp_z="54 : 21 : 1"
       inkscape:persp3d-origin="27 : 14 : 1"
       id="perspective19" />
  </defs>
  <g
     id="g8">
    <g
       transform="matrix(1.0 0.0 0.0 1.0 0.0 0.0)"
       id="g10">
      <path
         fill="none"
         stroke="#000000"
         stroke-width="1.0"
         stroke-linecap="round"
         stroke-linejoin="round"
         d="M 48.6 30.7 C 47.633335 30.1 47.800003 28.15 49.1 24.85 C 51.333332 20.983334 51.2 19.15 48.7 19.35 C 47.433334 19.616667 46.166668 20.6 44.9 22.3 L 43.7 24.85 L 40.7 30.85 M 45.1 19.85 C 45.333332 20.383333 45.266666 21.199999 44.9 22.3 M 52.7 28.85 C 50.9 30.65 49.533333 31.266666 48.6 30.7 M 38.7 22.85 C 42.066666 19.116667 44.199997 18.116667 45.1 19.85 M 13.8 5.3 C 8.9 6.466667 7.8999996 9.283334 10.8 13.75 M 41.45 5.3 L 13.8 5.3 M 25.8 27.55 C 25.1 32.15 27.433334 31.816668 32.8 26.55 M 34.05 7.25 C 29.116665 18.083334 26.366665 24.85 25.8 27.55 M 7.8 28.75 C 5.2666664 32.25 3.0999997 31.416666 1.3 26.25 M 18.7 7.15 C 16.366667 15.416666 12.733334 22.616667 7.8 28.75 M 39.7 18.85 C 38.5 22.916668 36.833332 26.916668 34.7 30.85 M 34.7 24.75 C 36.666668 23.016666 38.333336 21.05 39.7 18.85"
         id="path12" />
      <path
         fill="none"
         stroke="#000000"
         stroke-width="1.0"
         stroke-linecap="round"
         stroke-linejoin="round"
         d="M 26.45 8.3 L 16.45 30.7"
         id="path14" />
    </g>
  </g>
</svg>
