<?xml version="1.0" encoding="UTF-8" standalone="no"?>
<svg
   xmlns:dc="http://purl.org/dc/elements/1.1/"
   xmlns:cc="http://creativecommons.org/ns#"
   xmlns:rdf="http://www.w3.org/1999/02/22-rdf-syntax-ns#"
   xmlns:svg="http://www.w3.org/2000/svg"
   xmlns="http://www.w3.org/2000/svg"
   xmlns:sodipodi="http://sodipodi.sourceforge.net/DTD/sodipodi-0.dtd"
   xmlns:inkscape="http://www.inkscape.org/namespaces/inkscape"
   version="1.1"
   width="28.0px"
   height="42.0px"
   overflow="visible"
   viewBox="0.0 0.0 28.0 42.0"
   enable-background="new 0.0 0.0 28.0 42.0"
   id="svg2"
   sodipodi:version="0.32"
   inkscape:version="0.46"
   sodipodi:docname="25russisch-Tschtsch.svg"
   inkscape:output_extension="org.inkscape.output.svg.inkscape">
  <metadata
     id="metadata15">
    <rdf:RDF>
      <cc:Work
         rdf:about="">
        <dc:format>image/svg+xml</dc:format>
        <dc:type
           rdf:resource="http://purl.org/dc/dcmitype/StillImage" />
      </cc:Work>
    </rdf:RDF>
  </metadata>
  <sodipodi:namedview
     inkscape:window-height="668"
     inkscape:window-width="640"
     inkscape:pageshadow="2"
     inkscape:pageopacity="0.0"
     guidetolerance="10.0"
     gridtolerance="10.0"
     objecttolerance="10.0"
     borderopacity="1.0"
     bordercolor="#666666"
     pagecolor="#ffffff"
     id="base"
     showgrid="false"
     inkscape:zoom="11"
     inkscape:cx="14"
     inkscape:cy="21"
     inkscape:window-x="22"
     inkscape:window-y="47"
     inkscape:current-layer="svg2" />
  <defs
     id="defs4">
    <inkscape:perspective
       sodipodi:type="inkscape:persp3d"
       inkscape:vp_x="0 : 21 : 1"
       inkscape:vp_y="0 : 1000 : 0"
       inkscape:vp_z="28 : 21 : 1"
       inkscape:persp3d-origin="14 : 14 : 1"
       id="perspective17" />
  </defs>
  <g
     id="g8">
    <g
       transform="matrix(1.0 0.0 0.0 1.0 0.0 0.0)"
       id="g10">
      <path
         fill="none"
         stroke="#000000"
         stroke-width="1.0"
         stroke-linecap="round"
         stroke-linejoin="round"
         d="M 5.75 4.95 C 6.4500003 4.8166666 6.916667 4.983333 7.15 5.45 C 7.416667 5.9166665 7.3333335 6.583333 6.9 7.45 C 4.9333334 11.583333 4.1 14.25 4.4 15.45 C 5.4 19.05 8.283333 17.183332 13.05 9.85 L 5.9 27.45 C 4.6 32.38333 6.9333334 32.05 12.9 26.45 M 0.9 9.45 C 2.4 6.716666 4.016667 5.216666 5.75 4.95 M 13.05 9.85 L 14.9 5.05 M 20.05 18.3 C 19.716665 22.333334 21.583332 22.666668 25.65 19.3 L 21.05 28.3 C 20.65 29.9 21.066666 30.75 22.3 30.85 C 23.566668 30.983334 25.150002 30.133333 27.05 28.3 M 17.05 21.7 L 20.05 18.3"
         id="path12" />
    </g>
  </g>
</svg>
