<?xml version="1.0" encoding="UTF-8" standalone="no"?>
<svg
   xmlns:dc="http://purl.org/dc/elements/1.1/"
   xmlns:cc="http://creativecommons.org/ns#"
   xmlns:rdf="http://www.w3.org/1999/02/22-rdf-syntax-ns#"
   xmlns:svg="http://www.w3.org/2000/svg"
   xmlns="http://www.w3.org/2000/svg"
   xmlns:sodipodi="http://sodipodi.sourceforge.net/DTD/sodipodi-0.dtd"
   xmlns:inkscape="http://www.inkscape.org/namespaces/inkscape"
   version="1.1"
   width="50.0px"
   height="42.0px"
   overflow="visible"
   viewBox="0.0 0.0 50.0 42.0"
   enable-background="new 0.0 0.0 50.0 42.0"
   id="svg2"
   sodipodi:version="0.32"
   inkscape:version="0.46"
   sodipodi:docname="26russisch-Schsch(weich).svg"
   inkscape:output_extension="org.inkscape.output.svg.inkscape">
  <metadata
     id="metadata15">
    <rdf:RDF>
      <cc:Work
         rdf:about="">
        <dc:format>image/svg+xml</dc:format>
        <dc:type
           rdf:resource="http://purl.org/dc/dcmitype/StillImage" />
      </cc:Work>
    </rdf:RDF>
  </metadata>
  <sodipodi:namedview
     inkscape:window-height="480"
     inkscape:window-width="640"
     inkscape:pageshadow="2"
     inkscape:pageopacity="0.0"
     guidetolerance="10.0"
     gridtolerance="10.0"
     objecttolerance="10.0"
     borderopacity="1.0"
     bordercolor="#666666"
     pagecolor="#ffffff"
     id="base"
     showgrid="false" />
  <defs
     id="defs4">
    <inkscape:perspective
       sodipodi:type="inkscape:persp3d"
       inkscape:vp_x="0 : 21 : 1"
       inkscape:vp_y="0 : 1000 : 0"
       inkscape:vp_z="50 : 21 : 1"
       inkscape:persp3d-origin="25 : 14 : 1"
       id="perspective17" />
  </defs>
  <g
     id="g8">
    <g
       transform="matrix(1.0 0.0 0.0 1.0 0.0 0.0)"
       id="g10">
      <path
         fill="none"
         stroke="#000000"
         stroke-width="1.0"
         stroke-linecap="round"
         stroke-linejoin="round"
         d="M 45.0 30.3 C 46.5 30.966665 47.833332 30.3 49.0 28.3 M 37.65 30.6 C 38.383335 31.733334 41.15 28.833334 45.95 21.9 C 43.816666 25.366667 43.5 28.166666 45.0 30.3 M 39.45 22.0 C 37.38333 26.400002 36.783333 29.266668 37.65 30.6 M 34.8 28.65 C 36.13333 27.183334 37.68333 24.966667 39.45 22.0 L 41.5 18.3 M 30.7 30.0 C 31.6 31.1 32.966667 30.65 34.8 28.65 M 32.35 21.85 C 30.35 26.183334 29.800001 28.900002 30.7 30.0 M 32.35 21.85 L 34.4 18.3 M 48.0 18.8 L 45.95 21.9 C 43.816666 25.366667 43.5 28.166666 45.0 30.3 M 30.0 24.3 L 32.35 21.85 M 18.3 10.35 L 17.35 12.5 C 12.983334 22.800001 10.933333 28.583336 11.2 29.85 C 11.833333 31.183334 13.166666 31.183334 15.2 29.85 C 19.0 26.25 22.216667 22.233334 24.85 17.8 L 25.05 17.5 L 25.6 16.45 L 26.4 14.95 C 27.9 12.083333 29.166666 9.049999 30.2 5.85 M 3.2 30.85 C 7.2666674 30.183334 11.983335 24.066668 17.35 12.5 M 20.7 29.8 C 21.2 31.499998 22.7 31.183332 25.2 28.85 L 27.2 26.85 M 2.2 24.85 C 0.36666667 28.783333 0.70000005 30.783333 3.2 30.85 M 10.2 6.85 C 8.2 13.316666 5.533333 19.316666 2.2 24.85 M 20.2 5.85 L 18.3 10.35 M 24.85 17.8 C 21.45 23.900002 20.066668 27.900002 20.7 29.8 M 2.2 10.85 C 7.4333334 5.3166666 10.1 3.983333 10.2 6.85"
         id="path12" />
    </g>
  </g>
</svg>
