<?xml version="1.0" encoding="UTF-8" standalone="no"?>
<svg
   xmlns:dc="http://purl.org/dc/elements/1.1/"
   xmlns:cc="http://creativecommons.org/ns#"
   xmlns:rdf="http://www.w3.org/1999/02/22-rdf-syntax-ns#"
   xmlns:svg="http://www.w3.org/2000/svg"
   xmlns="http://www.w3.org/2000/svg"
   xmlns:sodipodi="http://sodipodi.sourceforge.net/DTD/sodipodi-0.dtd"
   xmlns:inkscape="http://www.inkscape.org/namespaces/inkscape"
   version="1.1"
   width="40.0px"
   height="42.0px"
   overflow="visible"
   viewBox="0.0 0.0 40.0 42.0"
   enable-background="new 0.0 0.0 40.0 42.0"
   id="svg2"
   sodipodi:version="0.32"
   inkscape:version="0.46"
   sodipodi:docname="01russisch-Aa.svg"
   inkscape:output_extension="org.inkscape.output.svg.inkscape">
  <metadata
     id="metadata15">
    <rdf:RDF>
      <cc:Work
         rdf:about="">
        <dc:format>image/svg+xml</dc:format>
        <dc:type
           rdf:resource="http://purl.org/dc/dcmitype/StillImage" />
      </cc:Work>
    </rdf:RDF>
  </metadata>
  <sodipodi:namedview
     inkscape:window-height="668"
     inkscape:window-width="640"
     inkscape:pageshadow="2"
     inkscape:pageopacity="0.0"
     guidetolerance="10.0"
     gridtolerance="10.0"
     objecttolerance="10.0"
     borderopacity="1.0"
     bordercolor="#666666"
     pagecolor="#ffffff"
     id="base"
     showgrid="false"
     inkscape:zoom="11"
     inkscape:cx="20"
     inkscape:cy="21"
     inkscape:window-x="220"
     inkscape:window-y="254"
     inkscape:current-layer="svg2" />
  <defs
     id="defs4">
    <inkscape:perspective
       sodipodi:type="inkscape:persp3d"
       inkscape:vp_x="0 : 21 : 1"
       inkscape:vp_y="0 : 1000 : 0"
       inkscape:vp_z="40 : 21 : 1"
       inkscape:persp3d-origin="20 : 14 : 1"
       id="perspective17" />
  </defs>
  <g
     id="g8">
    <g
       transform="matrix(1.0 0.0 0.0 1.0 0.0 0.0)"
       id="g10">
      <path
         fill="none"
         stroke="#000000"
         stroke-width="1.0"
         stroke-linecap="round"
         stroke-linejoin="round"
         d="M 32.6 23.75 C 32.966667 22.516666 33.016666 21.466667 32.75 20.6 C 32.45 19.466667 31.783335 18.9 30.75 18.9 C 29.683332 18.9 28.533333 19.466667 27.3 20.6 C 26.066668 21.7 25.133335 23.050001 24.5 24.65 C 23.833334 26.25 23.650002 27.6 23.95 28.7 C 24.283335 29.800001 24.983334 30.366667 26.05 30.4 C 27.083334 30.366667 28.216667 29.800001 29.45 28.7 C 30.516666 27.733334 31.366667 26.566668 32.0 25.2 L 32.25 24.65 L 32.6 23.75 Z M 32.0 25.2 C 31.233334 27.433332 31.35 29.166666 32.35 30.4 C 32.883335 31.166666 34.416668 30.033333 36.95 27.0 L 38.05 26.0 M 32.6 23.75 L 32.0 25.2 M 32.6 23.75 C 33.166668 22.449999 33.95 20.999998 34.95 19.4 M 11.75 19.2 C 10.650001 19.233334 9.766667 19.666666 9.1 20.5 C 8.433333 21.333334 8.283333 22.2 8.65 23.1 C 9.083333 24.1 10.116667 24.816668 11.75 25.25 L 12.25 25.25 L 15.75 21.25 C 16.916666 22.283333 17.683332 23.566666 18.05 25.1 L 17.7 25.25 M 17.7 25.25 C 15.7 25.550001 13.883333 25.550001 12.25 25.25 C 5.8499994 32.083332 2.6833327 32.083332 2.75 25.25 M 15.4 20.9 C 14.266666 19.733334 13.05 19.166668 11.75 19.2 M 15.75 21.25 C 19.283333 16.883333 23.566666 10.95 28.6 3.45 L 20.05 24.95 L 17.9 30.3 M 20.05 24.95 L 21.95 24.85 M 18.05 25.1 L 20.05 24.95 L 17.9 30.3 C 18.366667 28.333334 18.416666 26.6 18.05 25.1 Z M 17.75 30.65 L 17.9 30.3"
         id="path12" />
    </g>
  </g>
</svg>
