<?xml version="1.0" encoding="UTF-8" standalone="no"?>
<svg
   xmlns:dc="http://purl.org/dc/elements/1.1/"
   xmlns:cc="http://creativecommons.org/ns#"
   xmlns:rdf="http://www.w3.org/1999/02/22-rdf-syntax-ns#"
   xmlns:svg="http://www.w3.org/2000/svg"
   xmlns="http://www.w3.org/2000/svg"
   xmlns:sodipodi="http://sodipodi.sourceforge.net/DTD/sodipodi-0.dtd"
   xmlns:inkscape="http://www.inkscape.org/namespaces/inkscape"
   version="1.1"
   width="24.0px"
   height="42.0px"
   overflow="visible"
   viewBox="0.0 0.0 24.0 42.0"
   enable-background="new 0.0 0.0 24.0 42.0"
   id="svg2"
   sodipodi:version="0.32"
   inkscape:version="0.46"
   sodipodi:docname="19russisch-Ss.svg"
   inkscape:output_extension="org.inkscape.output.svg.inkscape">
  <metadata
     id="metadata15">
    <rdf:RDF>
      <cc:Work
         rdf:about="">
        <dc:format>image/svg+xml</dc:format>
        <dc:type
           rdf:resource="http://purl.org/dc/dcmitype/StillImage" />
      </cc:Work>
    </rdf:RDF>
  </metadata>
  <sodipodi:namedview
     inkscape:window-height="668"
     inkscape:window-width="640"
     inkscape:pageshadow="2"
     inkscape:pageopacity="0.0"
     guidetolerance="10.0"
     gridtolerance="10.0"
     objecttolerance="10.0"
     borderopacity="1.0"
     bordercolor="#666666"
     pagecolor="#ffffff"
     id="base"
     showgrid="false"
     inkscape:zoom="11"
     inkscape:cx="12"
     inkscape:cy="21"
     inkscape:window-x="220"
     inkscape:window-y="254"
     inkscape:current-layer="svg2" />
  <defs
     id="defs4">
    <inkscape:perspective
       sodipodi:type="inkscape:persp3d"
       inkscape:vp_x="0 : 21 : 1"
       inkscape:vp_y="0 : 1000 : 0"
       inkscape:vp_z="24 : 21 : 1"
       inkscape:persp3d-origin="12 : 14 : 1"
       id="perspective17" />
  </defs>
  <g
     id="g8">
    <g
       transform="matrix(1.0 0.0 0.0 1.0 0.0 0.0)"
       id="g10">
      <path
         fill="none"
         stroke="#000000"
         stroke-width="1.0"
         stroke-linecap="round"
         stroke-linejoin="round"
         d="M 20.65 18.7 C 19.283333 18.866667 17.566666 20.033333 15.5 22.2 C 13.900001 27.133335 14.283334 29.933334 16.65 30.6 C 18.983334 31.233334 20.983334 30.733334 22.65 29.1 M 23.15 21.7 C 23.183334 19.9 22.35 18.9 20.65 18.7 M 13.2 24.75 L 15.5 22.2 M 9.15 28.75 C 7.5499997 30.083334 5.8166666 30.716667 3.95 30.65 C 2.0500002 30.616667 1.0166669 29.333334 0.85 26.8 C 0.71666664 24.266666 1.1999999 21.283333 2.3 17.85 C 3.4 14.416666 5.3333335 11.383332 8.1 8.75 C 10.833334 6.116667 13.183334 4.7833333 15.15 4.75 C 17.15 4.6833334 18.216667 5.916667 18.35 8.45 L 18.4 9.15 M 12.1 25.85 L 9.15 28.75"
         id="path12" />
    </g>
  </g>
</svg>
