<?xml version="1.0" encoding="UTF-8" standalone="no"?>
<svg
   xmlns:dc="http://purl.org/dc/elements/1.1/"
   xmlns:cc="http://creativecommons.org/ns#"
   xmlns:rdf="http://www.w3.org/1999/02/22-rdf-syntax-ns#"
   xmlns:svg="http://www.w3.org/2000/svg"
   xmlns="http://www.w3.org/2000/svg"
   xmlns:sodipodi="http://sodipodi.sourceforge.net/DTD/sodipodi-0.dtd"
   xmlns:inkscape="http://www.inkscape.org/namespaces/inkscape"
   version="1.1"
   width="36.0px"
   height="42.0px"
   overflow="visible"
   viewBox="0.0 0.0 36.0 42.0"
   enable-background="new 0.0 0.0 36.0 42.0"
   id="svg2"
   sodipodi:version="0.32"
   inkscape:version="0.46"
   sodipodi:docname="24russisch-Zz.svg"
   inkscape:output_extension="org.inkscape.output.svg.inkscape">
  <metadata
     id="metadata21">
    <rdf:RDF>
      <cc:Work
         rdf:about="">
        <dc:format>image/svg+xml</dc:format>
        <dc:type
           rdf:resource="http://purl.org/dc/dcmitype/StillImage" />
      </cc:Work>
    </rdf:RDF>
  </metadata>
  <sodipodi:namedview
     inkscape:window-height="668"
     inkscape:window-width="640"
     inkscape:pageshadow="2"
     inkscape:pageopacity="0.0"
     guidetolerance="10.0"
     gridtolerance="10.0"
     objecttolerance="10.0"
     borderopacity="1.0"
     bordercolor="#666666"
     pagecolor="#ffffff"
     id="base"
     showgrid="false"
     inkscape:zoom="11"
     inkscape:cx="18"
     inkscape:cy="21"
     inkscape:window-x="66"
     inkscape:window-y="93"
     inkscape:current-layer="svg2" />
  <defs
     id="defs4">
    <inkscape:perspective
       sodipodi:type="inkscape:persp3d"
       inkscape:vp_x="0 : 21 : 1"
       inkscape:vp_y="0 : 1000 : 0"
       inkscape:vp_z="36 : 21 : 1"
       inkscape:persp3d-origin="18 : 14 : 1"
       id="perspective23" />
  </defs>
  <g
     id="g8">
    <g
       transform="matrix(1.0 0.0 0.0 1.0 0.0 0.0)"
       id="g10">
      <path
         fill="none"
         stroke="#000000"
         stroke-width="1.0"
         stroke-linecap="round"
         stroke-linejoin="round"
         d="M 31.0 23.35 C 28.699999 28.383333 28.499998 31.133333 30.4 31.6 L 31.1 31.5 M 31.0 23.35 C 29.633333 25.65 27.766666 28.066666 25.4 30.6 C 23.166666 32.166668 22.333332 31.833334 22.9 29.6 C 23.133333 27.566666 24.3 24.566666 26.4 20.6 C 25.133333 22.533333 23.466667 24.199999 21.4 25.6 M 32.4 20.6 L 31.0 23.35 M 32.2 35.05 C 31.1 37.85 30.033333 38.699997 29.0 37.6 C 28.933332 35.166668 30.166666 33.45 32.7 32.45 L 32.7 32.95 M 32.75 32.4 L 34.4 30.6 M 32.75 32.4 L 32.7 32.45 L 32.7 32.95 M 32.7 33.25 L 32.2 35.05 M 19.9 8.4 L 19.1 10.4 L 18.5 11.8 L 15.8 17.1 L 15.55 17.55 L 15.15 18.3 C 10.75 26.166668 9.683333 30.166668 11.95 30.3 L 13.0 30.35 M 8.05 27.45 C 10.583334 25.050001 12.950001 22.0 15.15 18.3 M 2.05 27.45 C 0.58333325 31.516666 2.5833333 31.516666 8.05 27.45 M 11.45 6.45 C 10.583333 9.716667 7.45 16.716667 2.05 27.45 M 21.05 5.45 L 19.9 8.4 M 4.05 8.45 C 9.183333 3.9499998 11.65 3.283333 11.45 6.45 M 15.35 30.9 L 19.05 27.45 M 15.15 31.1 L 15.35 30.9 M 10.45 35.45 C 11.216667 33.65 12.783334 32.2 15.15 31.1 M 13.05 36.45 C 10.95 38.61667 10.083333 38.283337 10.45 35.45 M 14.75 32.85 L 13.05 36.45"
         id="path12" />
      <path
         fill="none"
         stroke="#000000"
         stroke-width="1.0"
         stroke-linecap="round"
         stroke-linejoin="round"
         d="M 32.7 32.95 L 32.75 32.4"
         id="path14" />
      <path
         fill="none"
         stroke="#000000"
         stroke-width="1.0"
         stroke-linecap="round"
         stroke-linejoin="round"
         d="M 32.7 32.95 L 32.7 33.25"
         id="path16" />
      <path
         fill="none"
         stroke="#000000"
         stroke-width="1.0"
         stroke-linecap="round"
         stroke-linejoin="round"
         d="M 32.85 30.6 L 32.75 32.4 M 31.1 31.5 L 32.85 30.6 M 15.7 28.25 L 15.35 30.9 L 15.15 31.1 L 14.75 32.85 M 13.0 30.35 C 14.566667 29.95 15.466666 29.25 15.7 28.25"
         id="path18" />
    </g>
  </g>
</svg>
